<svg width="1370" height="339" viewBox="0 0 1370 339" fill="none" xmlns="http://www.w3.org/2000/svg">
<g filter="url(#filter0_d_20_198)">
<rect x="50" y="51.4265" width="1280" height="256.198" rx="25" fill="#101121"/>
<path d="M1001.74 57.1412C999.83 57.789 998.261 58.3238 998.241 58.3313C998.222 58.3388 999.33 60.3273 1000.71 62.7451L1003.2 67.1364L1003.27 73.7195C1003.31 77.3425 1003.35 80.3102 1003.35 80.3177C1003.36 80.3252 1003.77 80.3102 1004.25 80.2951L1005.13 80.265L1005.19 68.1382C1005.24 61.4722 1005.25 56.0038 1005.23 55.9963C1005.22 55.9813 1003.64 56.501 1001.74 57.1412Z" fill="#F8A80C"/>
<path d="M1006.07 68.1005C1006.11 74.7815 1006.15 80.2499 1006.16 80.2499C1006.16 80.2574 1006.56 80.28 1007.04 80.2951L1007.92 80.3252L1007.98 76.7098C1008.02 74.7288 1008.04 71.7686 1008.04 70.1342V67.1665L1010.56 62.7602C1011.93 60.3348 1013.05 58.3388 1013.03 58.3313C1013.01 58.3237 1011.42 57.7814 1009.51 57.1336L1006 55.9586L1006.07 68.1005Z" fill="#F8A80C"/>
<path d="M996.441 64.9671C994.9 67.0159 993.61 68.7708 993.561 68.8688C993.494 69.0043 993.629 69.3282 994.226 70.443C994.64 71.2113 995.006 71.844 995.035 71.844C995.073 71.844 995.574 71.2414 996.152 70.5108C996.739 69.7802 997.259 69.1701 997.327 69.155C997.384 69.1399 997.481 69.1851 997.529 69.2604C997.606 69.3659 997.394 69.6898 996.441 70.8799L995.256 72.3637L995.796 73.3805C996.094 73.9379 996.364 74.3823 996.393 74.3673C996.431 74.3522 996.749 73.9379 997.115 73.4483C997.904 72.3788 998.01 72.2658 998.193 72.3788C998.261 72.424 998.318 72.4993 998.318 72.5369C998.318 72.5746 997.933 73.1244 997.471 73.7496L996.614 74.902L998.184 77.8321C999.05 79.4515 999.773 80.7922 999.782 80.8223C999.801 80.8525 1000.24 80.7922 1000.77 80.6867C1001.3 80.5888 1001.97 80.4834 1002.26 80.4532L1002.78 80.4081L1002.71 73.8249L1002.64 67.2343L1000.95 64.2515C1000.02 62.6095 999.253 61.2537 999.243 61.2462C999.233 61.2387 997.972 62.9108 996.441 64.9671Z" fill="#F8A80C"/>
<path d="M1010.34 64.2365L1008.63 67.2418L1008.56 73.8249L1008.5 80.4081L1009.02 80.4532C1009.31 80.4834 1009.97 80.5888 1010.5 80.6867C1011.03 80.7922 1011.47 80.8525 1011.49 80.8223C1011.5 80.7922 1012.22 79.4515 1013.09 77.8321L1014.66 74.902L1013.8 73.7496C1013.34 73.1244 1012.96 72.5746 1012.96 72.5369C1012.96 72.4993 1013.01 72.424 1013.08 72.3788C1013.26 72.2658 1013.37 72.3788 1014.16 73.4483C1014.53 73.9379 1014.84 74.3522 1014.88 74.3673C1014.91 74.3823 1015.18 73.9379 1015.48 73.3805L1016.02 72.3637L1014.83 70.8799C1013.88 69.6898 1013.67 69.3659 1013.75 69.2604C1013.79 69.1851 1013.89 69.1399 1013.95 69.155C1014.01 69.1701 1014.53 69.7802 1015.12 70.5108C1015.7 71.2414 1016.2 71.844 1016.24 71.844C1016.31 71.844 1017.77 69.1324 1017.77 68.9968C1017.77 68.929 1012.19 61.3592 1012.05 61.2462C1012.04 61.2387 1011.27 62.5869 1010.34 64.2365Z" fill="#F8A80C"/>
<path d="M1003.53 80.7394C999.879 81.0106 995.959 82.3061 992.782 84.272C989.305 86.4413 986.744 89.4918 986.05 92.3088C985.906 92.9039 985.656 94.802 985.723 94.8547C985.742 94.8698 988.4 93.8303 991.626 92.5499C1002.24 88.3319 1002.84 88.0984 1003.09 88.1436C1003.31 88.1887 1003.33 88.2264 1003.33 88.7009C1003.33 88.9796 1003.3 89.6876 1003.26 90.2827L1003.2 91.3598L1000.64 92.4896C999.233 93.1148 997.914 93.7098 997.722 93.8077C997.038 94.1467 996.99 94.109 996.951 93.0997C996.932 92.6177 996.951 92.1582 996.99 92.0904C997.067 91.9699 1000.75 90.4484 1000.97 90.4484C1001.03 90.4484 1001.14 90.4936 1001.2 90.5538C1001.35 90.697 1001.33 90.7045 999.262 91.5406L997.452 92.2712L997.462 92.6177C997.471 92.8135 997.5 93.0621 997.539 93.175L997.596 93.3784L1000.04 92.2938C1001.39 91.6987 1002.56 91.164 1002.62 91.1037C1002.72 91.0284 1002.75 90.7346 1002.73 89.8006L1002.7 88.603L993.648 92.1959L984.596 95.7887V96.9788V98.1613L988.641 99.1933C990.865 99.7657 992.762 100.263 992.849 100.308C993.022 100.391 993.099 100.692 992.955 100.692C992.907 100.692 991.019 100.218 988.737 99.6452C986.464 99.0652 984.596 98.5982 984.587 98.6057C984.577 98.6133 984.539 98.9823 984.51 99.4192L984.442 100.225L984.712 100.3C987.668 101.114 1002.07 105.174 1002.2 105.219C1002.35 105.287 1002.36 105.558 1002.36 109.264V113.233L1003.79 114.672L1005.2 116.118L1005.26 115.689C1005.36 115.033 1005.35 104.677 1005.25 97.5663C1005.2 94.0412 1005.16 88.7989 1005.16 85.9065V80.6566L1004.74 80.6641C1004.52 80.6716 1003.97 80.7018 1003.53 80.7394Z" fill="#F8A80C"/>
<path d="M1006.12 85.899C1006.12 88.7989 1006.07 94.0412 1006.02 97.5663C1005.93 104.677 1005.92 115.033 1006.01 115.689L1006.07 116.118L1007.49 114.672L1008.91 113.233V109.264C1008.91 105.558 1008.92 105.287 1009.08 105.219C1009.2 105.174 1023.61 101.114 1026.56 100.3L1026.83 100.225L1026.76 99.4192C1026.74 98.9824 1026.7 98.6133 1026.69 98.6057C1026.68 98.5982 1024.81 99.0652 1022.54 99.6452C1020.25 100.218 1018.37 100.692 1018.33 100.692C1018.17 100.692 1018.25 100.391 1018.43 100.308C1018.51 100.263 1020.41 99.7657 1022.63 99.1933L1026.68 98.1613V96.9788V95.7887L1017.63 92.1959L1008.57 88.603L1008.55 89.8006C1008.53 90.7346 1008.55 91.0284 1008.65 91.1037C1008.72 91.164 1009.88 91.6987 1011.23 92.2938L1013.68 93.3784L1013.74 93.175C1013.77 93.0621 1013.8 92.8135 1013.81 92.6177L1013.82 92.2712L1012.02 91.5406C1009.94 90.7045 1009.92 90.697 1010.08 90.5539C1010.13 90.4936 1010.24 90.4484 1010.31 90.4484C1010.53 90.4484 1014.21 91.9699 1014.28 92.0904C1014.32 92.1582 1014.34 92.6177 1014.32 93.0997C1014.28 94.109 1014.24 94.1467 1013.55 93.8078C1013.36 93.7098 1012.04 93.1148 1010.63 92.4896L1008.07 91.3598L1008.02 90.2827C1007.98 89.6877 1007.95 88.9796 1007.95 88.7009C1007.95 88.2264 1007.97 88.1888 1008.18 88.1436C1008.45 88.0908 1007.77 87.8347 1018.36 92.0377C1022.21 93.5667 1025.39 94.8171 1025.43 94.8171C1025.55 94.8171 1025.4 92.8587 1025.23 92.2637C1024.09 88.2415 1019.98 84.4151 1014.55 82.3212C1012.03 81.3495 1009.69 80.8449 1007.01 80.6942L1006.12 80.6415V85.899Z" fill="#F8A80C"/>
<path d="M986.012 102.447C986.021 103.2 985.973 104.88 985.896 106.183L985.771 108.556L992.599 113.843C996.354 116.751 999.436 119.123 999.445 119.116C999.474 119.093 998.232 109.716 998.184 109.618C998.164 109.573 996.104 108.375 993.61 106.951L989.074 104.368V103.148V101.927L988.621 101.807C988.361 101.747 987.668 101.551 987.071 101.385L985.983 101.076L986.012 102.447Z" fill="#F8A80C"/>
<path d="M1023.58 101.543L1022.2 101.935V103.148V104.368L1017.66 106.951C1015.17 108.375 1013.11 109.573 1013.09 109.618C1013.04 109.716 1011.8 119.093 1011.83 119.116C1011.84 119.123 1014.92 116.751 1018.68 113.843L1025.5 108.556L1025.39 106.221C1025.33 104.94 1025.27 103.652 1025.27 103.366C1025.27 102.229 1025.17 101.144 1025.05 101.152C1024.99 101.152 1024.33 101.332 1023.58 101.543Z" fill="#F8A80C"/>
<path d="M989.652 102.937C989.652 103.389 989.633 103.856 989.604 103.976C989.556 104.187 989.7 104.277 994.13 106.793C998.145 109.075 998.704 109.414 998.704 109.588C998.704 109.761 998.896 109.881 1000.24 110.552C1001.09 110.966 1001.8 111.312 1001.83 111.312C1001.86 111.312 1001.88 110.009 1001.88 108.42V105.535L995.892 103.856C992.589 102.929 989.835 102.161 989.777 102.138C989.681 102.116 989.652 102.304 989.652 102.937Z" fill="#03062D"/>
<path d="M1015.44 103.833L1009.39 105.535V108.541V111.538L1010.97 110.71C1012.46 109.934 1012.56 109.874 1012.59 109.625C1012.62 109.377 1012.8 109.264 1017 106.869C1019.41 105.498 1021.45 104.315 1021.53 104.247C1021.65 104.142 1021.67 103.938 1021.64 103.117C1021.62 102.575 1021.57 102.123 1021.55 102.131C1021.51 102.131 1018.76 102.899 1015.44 103.833Z" fill="#03062D"/>
<path d="M987.052 115.696V118.687L994.621 127.733C998.79 132.704 1002.21 136.764 1002.22 136.756C1002.23 136.741 1001.72 133.608 1001.07 129.789L999.898 122.837L995.093 119.056C992.454 116.969 989.565 114.694 988.67 113.986L987.052 112.706V115.696Z" fill="#F8A80C"/>
<path d="M1017.77 117.798L1011.38 122.859L1010.2 129.796C1009.56 133.608 1009.05 136.741 1009.06 136.756C1009.07 136.764 1012.48 132.704 1016.65 127.733L1024.22 118.679L1024.2 115.711L1024.17 112.744L1017.77 117.798Z" fill="#F8A80C"/>
<path d="M1101.74 219.836C1099.83 220.484 1098.26 221.019 1098.24 221.026C1098.22 221.034 1099.33 223.022 1100.71 225.44L1103.2 229.831L1103.27 236.414C1103.31 240.037 1103.35 243.005 1103.35 243.013C1103.36 243.02 1103.77 243.005 1104.25 242.99L1105.13 242.96L1105.19 230.833C1105.24 224.167 1105.25 218.699 1105.23 218.691C1105.22 218.676 1103.64 219.196 1101.74 219.836Z" fill="#E9EAF4"/>
<path d="M1106.07 230.795C1106.11 237.476 1106.15 242.945 1106.16 242.945C1106.16 242.952 1106.56 242.975 1107.04 242.99L1107.92 243.02L1107.98 239.405C1108.02 237.424 1108.04 234.463 1108.04 232.829V229.861L1110.56 225.455C1111.93 223.03 1113.05 221.034 1113.03 221.026C1113.01 221.019 1111.42 220.476 1109.51 219.828L1106 218.653L1106.07 230.795Z" fill="#E9EAF4"/>
<path d="M1096.44 227.662C1094.9 229.711 1093.61 231.466 1093.56 231.564C1093.49 231.699 1093.63 232.023 1094.23 233.138C1094.64 233.906 1095.01 234.539 1095.03 234.539C1095.07 234.539 1095.57 233.936 1096.15 233.206C1096.74 232.475 1097.26 231.865 1097.33 231.85C1097.38 231.835 1097.48 231.88 1097.53 231.955C1097.61 232.061 1097.39 232.385 1096.44 233.575L1095.26 235.059L1095.8 236.075C1096.09 236.633 1096.36 237.077 1096.39 237.062C1096.43 237.047 1096.75 236.633 1097.11 236.143C1097.9 235.074 1098.01 234.961 1098.19 235.074C1098.26 235.119 1098.32 235.194 1098.32 235.232C1098.32 235.269 1097.93 235.819 1097.47 236.444L1096.61 237.597L1098.18 240.527C1099.05 242.146 1099.77 243.487 1099.78 243.517C1099.8 243.547 1100.24 243.487 1100.77 243.382C1101.3 243.284 1101.97 243.178 1102.26 243.148L1102.78 243.103L1102.71 236.52L1102.64 229.929L1100.95 226.946C1100.02 225.304 1099.25 223.949 1099.24 223.941C1099.23 223.933 1097.97 225.606 1096.44 227.662Z" fill="#E9EAF4"/>
<path d="M1110.34 226.931L1108.63 229.937L1108.56 236.52L1108.5 243.103L1109.02 243.148C1109.31 243.178 1109.97 243.284 1110.5 243.382C1111.03 243.487 1111.47 243.547 1111.49 243.517C1111.5 243.487 1112.22 242.146 1113.09 240.527L1114.66 237.597L1113.8 236.444C1113.34 235.819 1112.96 235.269 1112.96 235.232C1112.96 235.194 1113.01 235.119 1113.08 235.074C1113.26 234.961 1113.37 235.074 1114.16 236.143C1114.53 236.633 1114.84 237.047 1114.88 237.062C1114.91 237.077 1115.18 236.633 1115.48 236.075L1116.02 235.059L1114.83 233.575C1113.88 232.385 1113.67 232.061 1113.75 231.955C1113.79 231.88 1113.89 231.835 1113.95 231.85C1114.01 231.865 1114.53 232.475 1115.12 233.206C1115.7 233.936 1116.2 234.539 1116.24 234.539C1116.31 234.539 1117.77 231.827 1117.77 231.692C1117.77 231.624 1112.19 224.054 1112.05 223.941C1112.04 223.933 1111.27 225.282 1110.34 226.931Z" fill="#E9EAF4"/>
<path d="M1103.53 243.434C1099.88 243.706 1095.96 245.001 1092.78 246.967C1089.31 249.136 1086.74 252.187 1086.05 255.004C1085.91 255.599 1085.66 257.497 1085.72 257.55C1085.74 257.565 1088.4 256.525 1091.63 255.245C1102.24 251.027 1102.84 250.793 1103.09 250.839C1103.31 250.884 1103.33 250.921 1103.33 251.396C1103.33 251.675 1103.3 252.383 1103.26 252.978L1103.2 254.055L1100.64 255.185C1099.23 255.81 1097.91 256.405 1097.72 256.503C1097.04 256.842 1096.99 256.804 1096.95 255.795C1096.93 255.313 1096.95 254.853 1096.99 254.785C1097.07 254.665 1100.75 253.143 1100.97 253.143C1101.03 253.143 1101.14 253.189 1101.2 253.249C1101.35 253.392 1101.33 253.399 1099.26 254.236L1097.45 254.966L1097.46 255.313C1097.47 255.508 1097.5 255.757 1097.54 255.87L1097.6 256.073L1100.04 254.989C1101.39 254.394 1102.56 253.859 1102.62 253.799C1102.72 253.723 1102.75 253.43 1102.73 252.496L1102.7 251.298L1093.65 254.891L1084.6 258.484V259.674V260.856L1088.64 261.888C1090.87 262.461 1092.76 262.958 1092.85 263.003C1093.02 263.086 1093.1 263.387 1092.95 263.387C1092.91 263.387 1091.02 262.913 1088.74 262.34C1086.46 261.76 1084.6 261.293 1084.59 261.301C1084.58 261.308 1084.54 261.677 1084.51 262.114L1084.44 262.92L1084.71 262.995C1087.67 263.809 1102.07 267.869 1102.2 267.914C1102.35 267.982 1102.36 268.253 1102.36 271.959V275.928L1103.79 277.367L1105.2 278.813L1105.26 278.384C1105.36 277.728 1105.35 267.372 1105.25 260.261C1105.2 256.736 1105.16 251.494 1105.16 248.601V243.352L1104.74 243.359C1104.52 243.367 1103.97 243.397 1103.53 243.434Z" fill="#E9EAF4"/>
<path d="M1106.12 248.594C1106.12 251.494 1106.07 256.736 1106.02 260.261C1105.93 267.372 1105.92 277.728 1106.01 278.384L1106.07 278.813L1107.49 277.367L1108.91 275.928V271.959C1108.91 268.253 1108.92 267.982 1109.08 267.914C1109.2 267.869 1123.61 263.809 1126.56 262.995L1126.83 262.92L1126.76 262.114C1126.74 261.677 1126.7 261.308 1126.69 261.301C1126.68 261.293 1124.81 261.76 1122.54 262.34C1120.25 262.913 1118.37 263.387 1118.33 263.387C1118.17 263.387 1118.25 263.086 1118.43 263.003C1118.51 262.958 1120.41 262.461 1122.63 261.888L1126.68 260.856V259.674V258.484L1117.63 254.891L1108.57 251.298L1108.55 252.496C1108.53 253.43 1108.55 253.723 1108.65 253.799C1108.72 253.859 1109.88 254.394 1111.23 254.989L1113.68 256.073L1113.74 255.87C1113.77 255.757 1113.8 255.508 1113.81 255.313L1113.82 254.966L1112.02 254.236C1109.94 253.399 1109.92 253.392 1110.08 253.249C1110.13 253.189 1110.24 253.143 1110.31 253.143C1110.53 253.143 1114.21 254.665 1114.28 254.785C1114.32 254.853 1114.34 255.313 1114.32 255.795C1114.28 256.804 1114.24 256.842 1113.55 256.503C1113.36 256.405 1112.04 255.81 1110.63 255.185L1108.07 254.055L1108.02 252.978C1107.98 252.383 1107.95 251.675 1107.95 251.396C1107.95 250.921 1107.97 250.884 1108.18 250.839C1108.45 250.786 1107.77 250.53 1118.36 254.733C1122.21 256.262 1125.39 257.512 1125.43 257.512C1125.55 257.512 1125.4 255.554 1125.23 254.959C1124.09 250.936 1119.98 247.11 1114.55 245.016C1112.03 244.044 1109.69 243.54 1107.01 243.389L1106.12 243.336V248.594Z" fill="#E9EAF4"/>
<path d="M1086.01 265.142C1086.02 265.895 1085.97 267.575 1085.9 268.878L1085.77 271.251L1092.6 276.538C1096.35 279.446 1099.44 281.818 1099.45 281.811C1099.47 281.788 1098.23 272.411 1098.18 272.313C1098.16 272.268 1096.1 271.07 1093.61 269.646L1089.07 267.063V265.843V264.622L1088.62 264.502C1088.36 264.442 1087.67 264.246 1087.07 264.08L1085.98 263.771L1086.01 265.142Z" fill="#E9EAF4"/>
<path d="M1123.58 264.238L1122.2 264.63V265.843V267.063L1117.66 269.646C1115.17 271.07 1113.11 272.268 1113.09 272.313C1113.04 272.411 1111.8 281.788 1111.83 281.811C1111.84 281.818 1114.92 279.446 1118.68 276.538L1125.5 271.251L1125.39 268.916C1125.33 267.635 1125.27 266.347 1125.27 266.061C1125.27 264.924 1125.17 263.839 1125.05 263.847C1124.99 263.847 1124.33 264.027 1123.58 264.238Z" fill="#E9EAF4"/>
<path d="M1089.65 265.632C1089.65 266.084 1089.63 266.551 1089.6 266.671C1089.56 266.882 1089.7 266.973 1094.13 269.488C1098.15 271.771 1098.7 272.109 1098.7 272.283C1098.7 272.456 1098.9 272.576 1100.24 273.247C1101.09 273.661 1101.8 274.008 1101.83 274.008C1101.86 274.008 1101.88 272.705 1101.88 271.115V268.23L1095.89 266.551C1092.59 265.624 1089.83 264.856 1089.78 264.833C1089.68 264.811 1089.65 264.999 1089.65 265.632Z" fill="#264DE4"/>
<path d="M1115.44 266.528L1109.39 268.23V271.236V274.233L1110.97 273.405C1112.46 272.629 1112.56 272.569 1112.59 272.32C1112.62 272.072 1112.8 271.959 1117 269.563C1119.41 268.193 1121.45 267.01 1121.53 266.942C1121.65 266.837 1121.67 266.633 1121.64 265.812C1121.62 265.27 1121.57 264.818 1121.55 264.826C1121.51 264.826 1118.76 265.594 1115.44 266.528Z" fill="#264DE4"/>
<path d="M1087.05 278.391V281.381L1094.62 290.428C1098.79 295.399 1102.21 299.459 1102.22 299.451C1102.23 299.436 1101.72 296.303 1101.07 292.484L1099.9 285.532L1095.09 281.751C1092.45 279.664 1089.57 277.389 1088.67 276.681L1087.05 275.401V278.391Z" fill="#E9EAF4"/>
<path d="M1117.77 280.493L1111.38 285.554L1110.2 292.491C1109.56 296.303 1109.05 299.436 1109.06 299.451C1109.07 299.459 1112.48 295.399 1116.65 290.428L1124.22 281.374L1124.2 278.406L1124.17 275.439L1117.77 280.493Z" fill="#E9EAF4"/>
<path d="M1285.74 138.489C1283.83 139.136 1282.26 139.671 1282.24 139.679C1282.22 139.686 1283.33 141.675 1284.71 144.093L1287.2 148.484L1287.27 155.067C1287.31 158.69 1287.35 161.658 1287.35 161.665C1287.36 161.673 1287.77 161.658 1288.25 161.643L1289.13 161.612L1289.19 149.486C1289.24 142.82 1289.25 137.351 1289.23 137.344C1289.22 137.329 1287.64 137.848 1285.74 138.489Z" fill="#E9EAF4"/>
<path d="M1290.07 149.448C1290.11 156.129 1290.15 161.597 1290.16 161.597C1290.16 161.605 1290.56 161.627 1291.04 161.642L1291.92 161.673L1291.98 158.057C1292.02 156.076 1292.04 153.116 1292.04 151.482V148.514L1294.56 144.108C1295.93 141.682 1297.05 139.686 1297.03 139.679C1297.01 139.671 1295.42 139.129 1293.51 138.481L1290 137.306L1290.07 149.448Z" fill="#E9EAF4"/>
<path d="M1280.44 146.315C1278.9 148.363 1277.61 150.118 1277.56 150.216C1277.49 150.352 1277.63 150.676 1278.23 151.79C1278.64 152.559 1279.01 153.191 1279.03 153.191C1279.07 153.191 1279.57 152.589 1280.15 151.858C1280.74 151.128 1281.26 150.517 1281.33 150.502C1281.38 150.487 1281.48 150.533 1281.53 150.608C1281.61 150.713 1281.39 151.037 1280.44 152.227L1279.26 153.711L1279.8 154.728C1280.09 155.285 1280.36 155.73 1280.39 155.715C1280.43 155.7 1280.75 155.285 1281.11 154.796C1281.9 153.726 1282.01 153.613 1282.19 153.726C1282.26 153.771 1282.32 153.847 1282.32 153.884C1282.32 153.922 1281.93 154.472 1281.47 155.097L1280.61 156.249L1282.18 159.179C1283.05 160.799 1283.77 162.14 1283.78 162.17C1283.8 162.2 1284.24 162.14 1284.77 162.034C1285.3 161.936 1285.97 161.831 1286.26 161.801L1286.78 161.755L1286.71 155.172L1286.64 148.582L1284.95 145.599C1284.02 143.957 1283.25 142.601 1283.24 142.594C1283.23 142.586 1281.97 144.258 1280.44 146.315Z" fill="#E9EAF4"/>
<path d="M1294.34 145.584L1292.63 148.589L1292.56 155.172L1292.5 161.755L1293.02 161.801C1293.31 161.831 1293.97 161.936 1294.5 162.034C1295.03 162.14 1295.47 162.2 1295.49 162.17C1295.5 162.14 1296.22 160.799 1297.09 159.179L1298.66 156.249L1297.8 155.097C1297.34 154.472 1296.96 153.922 1296.96 153.884C1296.96 153.847 1297.01 153.771 1297.08 153.726C1297.26 153.613 1297.37 153.726 1298.16 154.796C1298.53 155.285 1298.84 155.7 1298.88 155.715C1298.91 155.73 1299.18 155.285 1299.48 154.728L1300.02 153.711L1298.83 152.227C1297.88 151.037 1297.67 150.713 1297.75 150.608C1297.79 150.533 1297.89 150.487 1297.95 150.502C1298.01 150.517 1298.53 151.128 1299.12 151.858C1299.7 152.589 1300.2 153.191 1300.24 153.191C1300.31 153.191 1301.77 150.48 1301.77 150.344C1301.77 150.276 1296.19 142.707 1296.05 142.594C1296.04 142.586 1295.27 143.934 1294.34 145.584Z" fill="#E9EAF4"/>
<path d="M1287.53 162.087C1283.88 162.358 1279.96 163.654 1276.78 165.619C1273.31 167.789 1270.74 170.839 1270.05 173.656C1269.91 174.251 1269.66 176.149 1269.72 176.202C1269.74 176.217 1272.4 175.178 1275.63 173.897C1286.24 169.679 1286.84 169.446 1287.09 169.491C1287.31 169.536 1287.33 169.574 1287.33 170.048C1287.33 170.327 1287.3 171.035 1287.26 171.63L1287.2 172.707L1284.64 173.837C1283.23 174.462 1281.91 175.057 1281.72 175.155C1281.04 175.494 1280.99 175.456 1280.95 174.447C1280.93 173.965 1280.95 173.506 1280.99 173.438C1281.07 173.317 1284.75 171.796 1284.97 171.796C1285.03 171.796 1285.14 171.841 1285.2 171.901C1285.35 172.044 1285.33 172.052 1283.26 172.888L1281.45 173.619L1281.46 173.965C1281.47 174.161 1281.5 174.409 1281.54 174.522L1281.6 174.726L1284.04 173.641C1285.39 173.046 1286.56 172.511 1286.62 172.451C1286.72 172.376 1286.75 172.082 1286.73 171.148L1286.7 169.95L1277.65 173.543L1268.6 177.136V178.326V179.509L1272.64 180.541C1274.87 181.113 1276.76 181.61 1276.85 181.655C1277.02 181.738 1277.1 182.04 1276.95 182.04C1276.91 182.04 1275.02 181.565 1272.74 180.993C1270.46 180.413 1268.6 179.946 1268.59 179.953C1268.58 179.961 1268.54 180.33 1268.51 180.767L1268.44 181.573L1268.71 181.648C1271.67 182.461 1286.07 186.521 1286.2 186.566C1286.35 186.634 1286.36 186.905 1286.36 190.611V194.581L1287.79 196.019L1289.2 197.465L1289.26 197.036C1289.36 196.381 1289.35 186.024 1289.25 178.914C1289.2 175.389 1289.16 170.146 1289.16 167.254V162.004L1288.74 162.012C1288.52 162.019 1287.97 162.049 1287.53 162.087Z" fill="#E9EAF4"/>
<path d="M1290.12 167.246C1290.12 170.146 1290.07 175.389 1290.02 178.914C1289.93 186.024 1289.92 196.381 1290.01 197.036L1290.07 197.465L1291.49 196.019L1292.91 194.581V190.611C1292.91 186.905 1292.92 186.634 1293.08 186.566C1293.2 186.521 1307.61 182.461 1310.56 181.648L1310.83 181.573L1310.76 180.767C1310.74 180.33 1310.7 179.961 1310.69 179.953C1310.68 179.946 1308.81 180.413 1306.54 180.993C1304.25 181.565 1302.37 182.04 1302.33 182.04C1302.17 182.04 1302.25 181.738 1302.43 181.655C1302.51 181.61 1304.41 181.113 1306.63 180.541L1310.68 179.509V178.326V177.136L1301.63 173.543L1292.57 169.95L1292.55 171.148C1292.53 172.082 1292.55 172.376 1292.65 172.451C1292.72 172.511 1293.88 173.046 1295.23 173.641L1297.68 174.726L1297.74 174.522C1297.77 174.409 1297.8 174.161 1297.81 173.965L1297.82 173.619L1296.02 172.888C1293.94 172.052 1293.92 172.044 1294.08 171.901C1294.13 171.841 1294.24 171.796 1294.31 171.796C1294.53 171.796 1298.21 173.317 1298.28 173.438C1298.32 173.506 1298.34 173.965 1298.32 174.447C1298.28 175.456 1298.24 175.494 1297.55 175.155C1297.36 175.057 1296.04 174.462 1294.63 173.837L1292.07 172.707L1292.02 171.63C1291.98 171.035 1291.95 170.327 1291.95 170.048C1291.95 169.574 1291.97 169.536 1292.18 169.491C1292.45 169.438 1291.77 169.182 1302.36 173.385C1306.21 174.914 1309.39 176.164 1309.43 176.164C1309.55 176.164 1309.4 174.206 1309.23 173.611C1308.09 169.589 1303.98 165.763 1298.55 163.669C1296.03 162.697 1293.69 162.192 1291.01 162.042L1290.12 161.989V167.246Z" fill="#E9EAF4"/>
<path d="M1270.01 183.795C1270.02 184.548 1269.97 186.227 1269.9 187.53L1269.77 189.903L1276.6 195.191C1280.35 198.098 1283.44 200.471 1283.45 200.463C1283.47 200.441 1282.23 191.063 1282.18 190.965C1282.16 190.92 1280.1 189.722 1277.61 188.299L1273.07 185.715V184.495V183.275L1272.62 183.154C1272.36 183.094 1271.67 182.898 1271.07 182.733L1269.98 182.424L1270.01 183.795Z" fill="#E9EAF4"/>
<path d="M1307.58 182.891L1306.2 183.282V184.495V185.715L1301.66 188.299C1299.17 189.722 1297.11 190.92 1297.09 190.965C1297.04 191.063 1295.8 200.441 1295.83 200.463C1295.84 200.471 1298.92 198.098 1302.68 195.191L1309.5 189.903L1309.39 187.568C1309.33 186.288 1309.27 185 1309.27 184.713C1309.27 183.576 1309.17 182.491 1309.05 182.499C1308.99 182.499 1308.33 182.68 1307.58 182.891Z" fill="#E9EAF4"/>
<path d="M1273.65 184.284C1273.65 184.736 1273.63 185.203 1273.6 185.324C1273.56 185.534 1273.7 185.625 1278.13 188.141C1282.15 190.423 1282.7 190.762 1282.7 190.935C1282.7 191.108 1282.9 191.229 1284.24 191.899C1285.09 192.313 1285.8 192.66 1285.83 192.66C1285.86 192.66 1285.88 191.357 1285.88 189.768V186.883L1279.89 185.203C1276.59 184.277 1273.83 183.508 1273.78 183.486C1273.68 183.463 1273.65 183.651 1273.65 184.284Z" fill="black"/>
<path d="M1299.44 185.18L1293.39 186.883V189.888V192.886L1294.97 192.057C1296.46 191.282 1296.56 191.221 1296.59 190.973C1296.62 190.724 1296.8 190.611 1301 188.216C1303.41 186.845 1305.45 185.663 1305.53 185.595C1305.65 185.489 1305.67 185.286 1305.64 184.465C1305.62 183.923 1305.57 183.471 1305.55 183.478C1305.51 183.478 1302.76 184.246 1299.44 185.18Z" fill="black"/>
<path d="M1271.05 197.044V200.034L1278.62 209.08C1282.79 214.051 1286.21 218.111 1286.22 218.104C1286.23 218.089 1285.72 214.955 1285.07 211.136L1283.9 204.184L1279.09 200.403C1276.45 198.317 1273.57 196.042 1272.67 195.334L1271.05 194.053V197.044Z" fill="#E9EAF4"/>
<path d="M1301.77 199.145L1295.38 204.207L1294.2 211.144C1293.56 214.955 1293.05 218.089 1293.06 218.104C1293.07 218.111 1296.48 214.051 1300.65 209.08L1308.22 200.026L1308.2 197.059L1308.17 194.091L1301.77 199.145Z" fill="#E9EAF4"/>
<path d="M311.737 55.2711C309.83 55.9189 308.261 56.4536 308.241 56.4612C308.222 56.4687 309.33 58.4572 310.707 60.875L313.201 65.2663L313.268 71.8494C313.307 75.4724 313.345 78.44 313.355 78.4476C313.364 78.4551 313.769 78.44 314.25 78.425L315.127 78.3949L315.194 66.2681C315.242 59.6021 315.252 54.1337 315.233 54.1262C315.223 54.1111 313.644 54.6309 311.737 55.2711Z" fill="#0AEB9A"/>
<path d="M316.07 66.2304C316.109 72.9114 316.147 78.3798 316.157 78.3798C316.157 78.3873 316.562 78.4099 317.043 78.4249L317.919 78.4551L317.977 74.8396C318.016 72.8587 318.045 69.8985 318.045 68.2641V65.2964L320.558 60.8901C321.935 58.4647 323.052 56.4687 323.033 56.4611C323.013 56.4536 321.425 55.9113 319.508 55.2635L316.003 54.0885L316.07 66.2304Z" fill="#0AEB9A"/>
<path d="M306.441 63.097C304.9 65.1457 303.61 66.9007 303.561 66.9986C303.494 67.1342 303.629 67.4581 304.226 68.5729C304.64 69.3412 305.006 69.9739 305.035 69.9739C305.073 69.9739 305.574 69.3713 306.152 68.6407C306.739 67.91 307.259 67.2999 307.327 67.2849C307.384 67.2698 307.481 67.315 307.529 67.3903C307.606 67.4958 307.394 67.8197 306.441 69.0097L305.256 70.4936L305.796 71.5104C306.094 72.0678 306.364 72.5122 306.393 72.4971C306.431 72.4821 306.749 72.0678 307.115 71.5782C307.904 70.5086 308.01 70.3957 308.193 70.5086C308.261 70.5538 308.318 70.6292 308.318 70.6668C308.318 70.7045 307.933 71.2543 307.471 71.8795L306.614 73.0319L308.184 75.9619C309.05 77.5814 309.773 78.9221 309.782 78.9522C309.801 78.9823 310.244 78.9221 310.774 78.8166C311.304 78.7187 311.968 78.6133 312.257 78.5831L312.777 78.5379L312.71 71.9548L312.642 65.3642L310.947 62.3814C310.023 60.7394 309.253 59.3836 309.243 59.3761C309.233 59.3686 307.972 61.0407 306.441 63.097Z" fill="#0AEB9A"/>
<path d="M320.336 62.3664L318.632 65.3717L318.564 71.9548L318.497 78.5379L319.017 78.5831C319.306 78.6133 319.97 78.7187 320.5 78.8166C321.03 78.9221 321.473 78.9823 321.492 78.9522C321.502 78.9221 322.224 77.5814 323.09 75.9619L324.66 73.0319L323.803 71.8795C323.341 71.2543 322.956 70.7045 322.956 70.6668C322.956 70.6292 323.013 70.5538 323.081 70.5086C323.264 70.3957 323.37 70.5086 324.159 71.5782C324.525 72.0678 324.843 72.4821 324.882 72.4971C324.91 72.5122 325.18 72.0678 325.479 71.5104L326.018 70.4936L324.833 69.0097C323.88 67.8197 323.668 67.4958 323.745 67.3903C323.793 67.315 323.89 67.2698 323.947 67.2849C324.015 67.2999 324.535 67.91 325.122 68.6407C325.7 69.3713 326.201 69.9739 326.239 69.9739C326.307 69.9739 327.77 67.2623 327.77 67.1267C327.77 67.0589 322.185 59.4891 322.05 59.3761C322.041 59.3686 321.27 60.7168 320.336 62.3664Z" fill="#0AEB9A"/>
<path d="M313.528 78.8693C309.879 79.1405 305.959 80.436 302.782 82.4019C299.305 84.5712 296.744 87.6217 296.05 90.4387C295.906 91.0338 295.656 92.9319 295.723 92.9846C295.742 92.9997 298.4 91.9602 301.626 90.6798C312.238 86.4617 312.844 86.2282 313.095 86.2734C313.307 86.3186 313.326 86.3563 313.326 86.8308C313.326 87.1095 313.297 87.8175 313.259 88.4126L313.201 89.4897L310.639 90.6195C309.233 91.2447 307.914 91.8397 307.722 91.9376C307.038 92.2766 306.99 92.2389 306.951 91.2296C306.932 90.7475 306.951 90.2881 306.99 90.2203C307.067 90.0998 310.745 88.5783 310.967 88.5783C311.034 88.5783 311.14 88.6235 311.198 88.6837C311.352 88.8268 311.333 88.8344 309.262 89.6704L307.452 90.4011L307.462 90.7475C307.471 90.9434 307.5 91.1919 307.539 91.3049L307.596 91.5083L310.042 90.4237C311.39 89.8286 312.556 89.2938 312.623 89.2336C312.719 89.1583 312.748 88.8645 312.729 87.9305L312.7 86.7329L303.648 90.3257L294.596 93.9186V95.1087V96.2912L298.641 97.3231C300.865 97.8956 302.762 98.3927 302.849 98.4379C303.022 98.5207 303.099 98.822 302.955 98.822C302.907 98.822 301.019 98.3475 298.737 97.7751C296.464 97.1951 294.596 96.7281 294.587 96.7356C294.577 96.7432 294.539 97.1122 294.51 97.5491L294.442 98.355L294.712 98.4304C297.668 99.2438 312.074 103.304 312.199 103.349C312.353 103.417 312.363 103.688 312.363 107.394V111.363L313.788 112.802L315.204 114.248L315.262 113.819C315.358 113.163 315.348 102.807 315.252 95.6962C315.204 92.1711 315.156 86.9287 315.156 84.0364V78.7865L314.742 78.794C314.52 78.8015 313.971 78.8317 313.528 78.8693Z" fill="#0AEB9A"/>
<path d="M316.119 84.0289C316.119 86.9287 316.07 92.1711 316.022 95.6962C315.926 102.807 315.916 113.163 316.013 113.819L316.07 114.248L317.486 112.802L318.911 111.363V107.394C318.911 103.688 318.921 103.417 319.085 103.349C319.2 103.304 333.606 99.2438 336.562 98.4304L336.832 98.355L336.765 97.5491C336.736 97.1122 336.697 96.7432 336.687 96.7356C336.678 96.7281 334.81 97.1951 332.537 97.7751C330.255 98.3475 328.367 98.822 328.329 98.822C328.175 98.822 328.252 98.5208 328.425 98.4379C328.512 98.3927 330.409 97.8956 332.633 97.3231L336.678 96.2912V95.1087V93.9186L327.626 90.3257L318.574 86.7329L318.545 87.9305C318.526 88.8645 318.555 89.1583 318.651 89.2336C318.719 89.2938 319.884 89.8286 321.232 90.4237L323.678 91.5083L323.736 91.3049C323.774 91.1919 323.803 90.9434 323.813 90.7475L323.822 90.4011L322.022 89.6704C319.942 88.8344 319.922 88.8268 320.076 88.6837C320.134 88.6235 320.24 88.5783 320.307 88.5783C320.529 88.5783 324.207 90.0998 324.285 90.2203C324.323 90.2881 324.342 90.7475 324.323 91.2296C324.285 92.2389 324.236 92.2766 323.553 91.9376C323.36 91.8397 322.041 91.2447 320.635 90.6195L318.073 89.4897L318.016 88.4126C317.977 87.8175 317.948 87.1095 317.948 86.8308C317.948 86.3563 317.967 86.3186 318.179 86.2734C318.449 86.2207 317.775 85.9646 328.358 90.1676C332.21 91.6966 335.387 92.9469 335.426 92.9469C335.551 92.9469 335.397 90.9886 335.233 90.3935C334.087 86.3714 329.976 82.545 324.554 80.4511C322.031 79.4794 319.691 78.9748 317.014 78.8241L316.119 78.7714V84.0289Z" fill="#0AEB9A"/>
<path d="M296.012 100.577C296.021 101.33 295.973 103.01 295.896 104.313L295.771 106.686L302.599 111.973C306.354 114.881 309.436 117.253 309.445 117.246C309.474 117.223 308.232 107.846 308.184 107.748C308.164 107.702 306.104 106.505 303.61 105.081L299.074 102.498V101.278V100.057L298.621 99.9368C298.361 99.8765 297.668 99.6807 297.071 99.515L295.983 99.2062L296.012 100.577Z" fill="#0AEB9A"/>
<path d="M333.577 99.6731L332.2 100.065V101.278V102.498L327.664 105.081C325.17 106.505 323.11 107.702 323.09 107.748C323.042 107.846 321.8 117.223 321.829 117.246C321.838 117.253 324.92 114.881 328.676 111.973L335.503 106.686L335.387 104.351C335.33 103.07 335.272 101.782 335.272 101.496C335.272 100.359 335.166 99.2739 335.05 99.2815C334.993 99.2815 334.328 99.4622 333.577 99.6731Z" fill="#0AEB9A"/>
<path d="M299.652 101.067C299.652 101.519 299.633 101.986 299.604 102.106C299.556 102.317 299.7 102.407 304.13 104.923C308.145 107.205 308.704 107.544 308.704 107.718C308.704 107.891 308.896 108.011 310.245 108.682C311.092 109.096 311.805 109.442 311.833 109.442C311.862 109.442 311.882 108.139 311.882 106.55V103.665L305.892 101.986C302.589 101.059 299.835 100.291 299.777 100.268C299.681 100.246 299.652 100.434 299.652 101.067Z" fill="#1BBBEE"/>
<path d="M325.44 101.963L319.393 103.665V106.671V109.668L320.972 108.84C322.464 108.064 322.561 108.004 322.59 107.755C322.619 107.507 322.801 107.394 327 104.998C329.407 103.628 331.449 102.445 331.526 102.377C331.651 102.272 331.67 102.068 331.641 101.247C331.622 100.705 331.574 100.253 331.545 100.261C331.507 100.261 328.762 101.029 325.44 101.963Z" fill="#1BBBEE"/>
<path d="M297.052 113.826V116.816L304.621 125.863C308.79 130.834 312.209 134.894 312.219 134.886C312.228 134.871 311.718 131.738 311.073 127.919L309.898 120.967L305.093 117.185C302.454 115.099 299.565 112.824 298.67 112.116L297.052 110.836V113.826Z" fill="#0AEB9A"/>
<path d="M327.77 115.928L321.376 120.989L320.201 127.926C319.556 131.738 319.046 134.871 319.056 134.886C319.065 134.894 322.484 130.834 326.653 125.863L334.222 116.809L334.203 113.841L334.174 110.874L327.77 115.928Z" fill="#0AEB9A"/>
<path d="M686.729 206.29C684.395 207.042 682.473 207.662 682.449 207.671C682.426 207.68 683.782 209.988 685.468 212.795L688.521 217.893L688.604 225.536C688.651 229.742 688.698 233.187 688.71 233.196C688.722 233.204 689.217 233.187 689.806 233.169L690.879 233.134L690.962 219.056C691.021 211.318 691.033 204.969 691.009 204.961C690.997 204.943 689.064 205.546 686.729 206.29Z" fill="#F37909"/>
<path d="M692.035 219.012C692.082 226.769 692.129 233.117 692.141 233.117C692.141 233.126 692.636 233.152 693.226 233.169L694.299 233.204L694.369 229.007C694.416 226.707 694.452 223.271 694.452 221.373V217.928L697.529 212.813C699.215 209.997 700.583 207.68 700.559 207.671C700.535 207.662 698.59 207.033 696.244 206.281L691.952 204.917L692.035 219.012Z" fill="#F37909"/>
<path d="M680.245 215.375C678.358 217.753 676.778 219.791 676.719 219.904C676.637 220.062 676.802 220.438 677.533 221.732C678.04 222.624 678.488 223.358 678.523 223.358C678.57 223.358 679.184 222.659 679.891 221.811C680.61 220.962 681.247 220.254 681.329 220.237C681.4 220.219 681.518 220.272 681.577 220.359C681.671 220.482 681.412 220.858 680.245 222.239L678.794 223.962L679.455 225.142C679.82 225.789 680.15 226.305 680.186 226.288C680.233 226.27 680.622 225.789 681.07 225.221C682.037 223.979 682.166 223.848 682.39 223.979C682.473 224.032 682.544 224.119 682.544 224.163C682.544 224.207 682.072 224.845 681.506 225.571L680.457 226.909L682.379 230.31C683.44 232.19 684.324 233.747 684.336 233.782C684.359 233.817 684.902 233.747 685.55 233.624C686.199 233.51 687.012 233.388 687.366 233.353L688.003 233.301L687.92 225.658L687.838 218.007L685.762 214.544C684.631 212.638 683.687 211.064 683.676 211.055C683.664 211.046 682.119 212.988 680.245 215.375Z" fill="#F37909"/>
<path d="M697.258 214.527L695.171 218.016L695.089 225.658L695.006 233.301L695.643 233.353C695.996 233.388 696.81 233.51 697.458 233.624C698.107 233.747 698.649 233.817 698.673 233.782C698.684 233.747 699.569 232.19 700.63 230.31L702.552 226.909L701.502 225.571C700.936 224.845 700.465 224.207 700.465 224.163C700.465 224.119 700.536 224.032 700.618 223.979C700.842 223.848 700.972 223.979 701.939 225.221C702.387 225.789 702.776 226.27 702.823 226.288C702.858 226.305 703.188 225.789 703.554 225.142L704.214 223.962L702.764 222.239C701.597 220.858 701.337 220.482 701.432 220.359C701.491 220.272 701.608 220.219 701.679 220.237C701.762 220.254 702.398 220.962 703.118 221.811C703.825 222.659 704.438 223.358 704.485 223.358C704.568 223.358 706.36 220.21 706.36 220.053C706.36 219.974 699.522 211.186 699.357 211.055C699.345 211.046 698.402 212.612 697.258 214.527Z" fill="#F37909"/>
<path d="M688.922 233.685C684.454 234 679.655 235.504 675.764 237.786C671.508 240.305 668.372 243.846 667.523 247.117C667.346 247.807 667.04 250.011 667.122 250.072C667.146 250.09 670.4 248.883 674.35 247.396C687.342 242.5 688.085 242.228 688.392 242.281C688.651 242.333 688.675 242.377 688.675 242.928C688.675 243.252 688.639 244.074 688.592 244.764L688.521 246.015L685.385 247.326C683.664 248.052 682.049 248.743 681.813 248.857C680.976 249.25 680.917 249.206 680.87 248.035C680.846 247.475 680.87 246.942 680.917 246.863C681.011 246.723 685.515 244.957 685.786 244.957C685.869 244.957 685.998 245.009 686.069 245.079C686.258 245.245 686.234 245.254 683.699 246.225L681.483 247.073L681.494 247.475C681.506 247.702 681.542 247.991 681.589 248.122L681.66 248.358L684.654 247.099C686.305 246.408 687.731 245.787 687.814 245.717C687.932 245.63 687.967 245.289 687.944 244.205L687.908 242.814L676.826 246.985L665.743 251.156V252.538V253.911L670.695 255.109C673.418 255.773 675.741 256.35 675.847 256.403C676.059 256.499 676.154 256.849 675.977 256.849C675.918 256.849 673.607 256.298 670.813 255.633C668.03 254.96 665.743 254.418 665.731 254.427C665.719 254.435 665.672 254.864 665.637 255.371L665.554 256.307L665.884 256.394C669.504 257.339 687.142 262.052 687.295 262.104C687.484 262.183 687.496 262.498 687.496 266.8V271.408L689.241 273.078L690.974 274.757L691.044 274.259C691.162 273.498 691.151 261.475 691.033 253.22C690.974 249.128 690.915 243.042 690.915 239.684V233.589L690.408 233.598C690.137 233.607 689.465 233.642 688.922 233.685Z" fill="#F37909"/>
<path d="M692.094 239.675C692.094 243.042 692.035 249.128 691.976 253.22C691.858 261.475 691.846 273.498 691.964 274.259L692.035 274.757L693.768 273.078L695.513 271.408V266.8C695.513 262.498 695.525 262.183 695.725 262.104C695.867 262.052 713.505 257.339 717.124 256.394L717.454 256.307L717.372 255.371C717.336 254.864 717.289 254.435 717.277 254.427C717.266 254.418 714.978 254.96 712.196 255.633C709.402 256.298 707.091 256.849 707.044 256.849C706.855 256.849 706.949 256.499 707.162 256.403C707.268 256.35 709.59 255.773 712.314 255.109L717.266 253.911V252.538V251.156L706.183 246.985L695.1 242.814L695.065 244.205C695.041 245.289 695.077 245.63 695.195 245.717C695.277 245.787 696.704 246.408 698.354 247.099L701.349 248.358L701.42 248.122C701.467 247.991 701.502 247.702 701.514 247.475L701.526 247.073L699.321 246.225C696.774 245.254 696.751 245.245 696.94 245.079C697.01 245.009 697.14 244.957 697.222 244.957C697.494 244.957 701.997 246.723 702.092 246.863C702.139 246.942 702.163 247.475 702.139 248.035C702.092 249.206 702.033 249.25 701.196 248.857C700.96 248.743 699.345 248.052 697.623 247.326L694.487 246.015L694.416 244.764C694.369 244.074 694.334 243.252 694.334 242.928C694.334 242.377 694.357 242.333 694.617 242.281C694.947 242.22 694.122 241.922 707.079 246.802C711.795 248.577 715.686 250.028 715.733 250.028C715.886 250.028 715.698 247.755 715.497 247.064C714.094 242.395 709.06 237.953 702.422 235.522C699.333 234.394 696.468 233.808 693.19 233.633L692.094 233.572V239.675Z" fill="#F37909"/>
<path d="M667.476 258.886C667.488 259.761 667.429 261.711 667.335 263.223L667.181 265.978L675.54 272.116C680.139 275.492 683.911 278.246 683.923 278.237C683.959 278.211 682.438 267.324 682.379 267.211C682.355 267.158 679.832 265.768 676.778 264.115L671.225 261.116V259.699V258.283L670.671 258.143C670.353 258.073 669.504 257.846 668.773 257.653L667.441 257.295L667.476 258.886Z" fill="#F37909"/>
<path d="M713.469 257.837L711.783 258.292V259.699V261.116L706.23 264.115C703.176 265.768 700.653 267.158 700.63 267.211C700.571 267.324 699.05 278.211 699.085 278.237C699.097 278.246 702.87 275.492 707.468 272.116L715.827 265.978L715.686 263.267C715.615 261.781 715.544 260.285 715.544 259.953C715.544 258.633 715.415 257.374 715.273 257.382C715.202 257.382 714.389 257.592 713.469 257.837Z" fill="#F37909"/>
<path d="M671.933 259.455C671.933 259.979 671.909 260.521 671.874 260.661C671.815 260.906 671.992 261.011 677.415 263.932C682.331 266.581 683.015 266.975 683.015 267.176C683.015 267.377 683.251 267.517 684.902 268.295C685.939 268.776 686.812 269.178 686.847 269.178C686.882 269.178 686.906 267.665 686.906 265.82V262.471L679.573 260.521C675.529 259.446 672.157 258.554 672.086 258.528C671.968 258.501 671.933 258.72 671.933 259.455Z" fill="#1BBBEE"/>
<path d="M703.507 260.495L696.102 262.471V265.96V269.44L698.036 268.479C699.863 267.578 699.981 267.508 700.017 267.219C700.052 266.931 700.276 266.8 705.417 264.019C708.364 262.428 710.864 261.055 710.958 260.976C711.111 260.854 711.135 260.617 711.099 259.664C711.076 259.035 711.017 258.51 710.982 258.519C710.934 258.519 707.574 259.411 703.507 260.495Z" fill="#1BBBEE"/>
<path d="M668.749 274.267V277.739L678.016 288.241C683.121 294.012 687.307 298.725 687.319 298.716C687.331 298.699 686.706 295.061 685.916 290.628L684.477 282.557L678.594 278.167C675.364 275.745 671.826 273.104 670.73 272.282L668.749 270.796V274.267Z" fill="#F37909"/>
<path d="M706.36 276.707L698.531 282.583L697.093 290.637C696.303 295.061 695.678 298.699 695.69 298.716C695.702 298.725 699.887 294.012 704.992 288.241L714.259 277.73L714.236 274.285L714.2 270.84L706.36 276.707Z" fill="#F37909"/>
<path d="M79.737 106.698C77.8303 107.345 76.2607 107.88 76.2415 107.888C76.2222 107.895 77.3296 109.884 78.7066 112.302L81.2007 116.693L81.2681 123.276C81.3066 126.899 81.3452 129.867 81.3548 129.874C81.3644 129.882 81.7689 129.867 82.2503 129.851L83.1266 129.821L83.1941 117.695C83.2422 111.029 83.2518 105.56 83.2326 105.553C83.2229 105.538 81.6437 106.057 79.737 106.698Z" fill="#D1D6D6"/>
<path d="M84.0703 117.657C84.1089 124.338 84.1474 129.806 84.157 129.806C84.157 129.814 84.5614 129.836 85.0429 129.851L85.9192 129.882L85.977 126.266C86.0155 124.285 86.0444 121.325 86.0444 119.691V116.723L88.5577 112.317C89.9348 109.891 91.0518 107.895 91.0326 107.888C91.0133 107.88 89.4244 107.338 87.5081 106.69L84.0029 105.515L84.0703 117.657Z" fill="#D1D6D6"/>
<path d="M74.4407 114.523C72.9 116.572 71.6096 118.327 71.5615 118.425C71.4941 118.561 71.6289 118.885 72.2259 119.999C72.64 120.768 73.0059 121.4 73.0348 121.4C73.0733 121.4 73.5741 120.798 74.1518 120.067C74.7392 119.337 75.2592 118.726 75.3266 118.711C75.3844 118.696 75.4807 118.742 75.5289 118.817C75.6059 118.922 75.3941 119.246 74.4407 120.436L73.2563 121.92L73.7955 122.937C74.0941 123.494 74.3637 123.939 74.3926 123.924C74.4311 123.909 74.7489 123.494 75.1148 123.005C75.9044 121.935 76.0104 121.822 76.1933 121.935C76.2607 121.98 76.3185 122.056 76.3185 122.093C76.3185 122.131 75.9333 122.681 75.4711 123.306L74.6141 124.458L76.1837 127.388C77.0504 129.008 77.7726 130.349 77.7822 130.379C77.8015 130.409 78.2444 130.349 78.7741 130.243C79.3037 130.145 79.9681 130.04 80.257 130.01L80.777 129.964L80.7096 123.381L80.6422 116.791L78.9474 113.808C78.0229 112.166 77.2526 110.81 77.2429 110.803C77.2333 110.795 75.9718 112.467 74.4407 114.523Z" fill="#D1D6D6"/>
<path d="M88.3363 113.793L86.6318 116.798L86.5644 123.381L86.497 129.964L87.017 130.01C87.3059 130.04 87.9703 130.145 88.5 130.243C89.0296 130.349 89.4726 130.409 89.4918 130.379C89.5015 130.349 90.2237 129.008 91.0903 127.388L92.66 124.458L91.8029 123.306C91.3407 122.681 90.9555 122.131 90.9555 122.093C90.9555 122.056 91.0133 121.98 91.0807 121.935C91.2637 121.822 91.3696 121.935 92.1592 123.005C92.5252 123.494 92.8429 123.909 92.8815 123.924C92.9103 123.939 93.18 123.494 93.4785 122.937L94.0177 121.92L92.8333 120.436C91.88 119.246 91.6681 118.922 91.7452 118.817C91.7933 118.742 91.8896 118.696 91.9474 118.711C92.0148 118.726 92.5348 119.337 93.1222 120.067C93.7 120.798 94.2007 121.4 94.2392 121.4C94.3066 121.4 95.7703 118.689 95.7703 118.553C95.7703 118.485 90.1852 110.916 90.0503 110.803C90.0407 110.795 89.2703 112.143 88.3363 113.793Z" fill="#D1D6D6"/>
<path d="M81.5281 130.296C77.8785 130.567 73.9592 131.863 70.7815 133.828C67.3052 135.998 64.7437 139.048 64.0503 141.865C63.9059 142.46 63.6555 144.358 63.7229 144.411C63.7422 144.426 66.4 143.387 69.6259 142.106C80.2378 137.888 80.8444 137.655 81.0948 137.7C81.3066 137.745 81.3259 137.783 81.3259 138.257C81.3259 138.536 81.297 139.244 81.2585 139.839L81.2007 140.916L78.6392 142.046C77.2333 142.671 75.9141 143.266 75.7215 143.364C75.0378 143.703 74.9896 143.665 74.9511 142.656C74.9318 142.174 74.9511 141.715 74.9896 141.647C75.0666 141.526 78.7452 140.005 78.9666 140.005C79.0341 140.005 79.14 140.05 79.1978 140.11C79.3518 140.253 79.3326 140.261 77.2622 141.097L75.4518 141.828L75.4615 142.174C75.4711 142.37 75.5 142.618 75.5385 142.731L75.5963 142.935L78.0422 141.85C79.3903 141.255 80.5555 140.72 80.6229 140.66C80.7192 140.585 80.7481 140.291 80.7289 139.357L80.7 138.159L71.6481 141.752L62.5963 145.345V146.535V147.718L66.6407 148.75C68.8652 149.322 70.7622 149.819 70.8489 149.864C71.0222 149.947 71.0992 150.249 70.9548 150.249C70.9066 150.249 69.0192 149.774 66.737 149.202C64.4644 148.622 62.5963 148.155 62.5866 148.162C62.577 148.17 62.5385 148.539 62.5096 148.976L62.4422 149.782L62.7118 149.857C65.6681 150.67 80.0741 154.73 80.1992 154.775C80.3533 154.843 80.3629 155.114 80.3629 158.82V162.79L81.7881 164.228L83.2037 165.674L83.2615 165.245C83.3578 164.59 83.3481 154.233 83.2518 147.123C83.2037 143.598 83.1555 138.355 83.1555 135.463V130.213L82.7415 130.221C82.52 130.228 81.9711 130.258 81.5281 130.296Z" fill="#D1D6D6"/>
<path d="M84.1185 135.455C84.1185 138.355 84.0704 143.598 84.0222 147.123C83.9259 154.233 83.9163 164.59 84.0126 165.245L84.0704 165.674L85.4859 164.228L86.9111 162.79V158.82C86.9111 155.114 86.9207 154.843 87.0844 154.775C87.2 154.73 101.606 150.67 104.562 149.857L104.832 149.782L104.764 148.976C104.736 148.539 104.697 148.17 104.687 148.162C104.678 148.155 102.81 148.622 100.537 149.202C98.2548 149.774 96.3674 150.249 96.3289 150.249C96.1748 150.249 96.2519 149.947 96.4252 149.864C96.5119 149.819 98.4089 149.322 100.633 148.75L104.678 147.718V146.535V145.345L95.6259 141.752L86.5741 138.159L86.5452 139.357C86.5259 140.291 86.5548 140.585 86.6511 140.66C86.7185 140.72 87.8837 141.255 89.2319 141.85L91.6778 142.935L91.7356 142.731C91.7741 142.618 91.803 142.37 91.8126 142.174L91.8222 141.828L90.0215 141.097C87.9415 140.261 87.9222 140.253 88.0763 140.11C88.1341 140.05 88.24 140.005 88.3074 140.005C88.5289 140.005 92.2074 141.526 92.2844 141.647C92.323 141.715 92.3422 142.174 92.323 142.656C92.2844 143.665 92.2363 143.703 91.5526 143.364C91.36 143.266 90.0407 142.671 88.6348 142.046L86.0733 140.916L86.0156 139.839C85.977 139.244 85.9482 138.536 85.9482 138.257C85.9482 137.783 85.9674 137.745 86.1793 137.7C86.4489 137.647 85.7748 137.391 96.3578 141.594C100.21 143.123 103.387 144.373 103.426 144.373C103.551 144.373 103.397 142.415 103.233 141.82C102.087 137.798 97.9756 133.972 92.5541 131.878C90.0311 130.906 87.6911 130.401 85.0141 130.251L84.1185 130.198V135.455Z" fill="#D1D6D6"/>
<path d="M64.0118 152.004C64.0214 152.757 63.9733 154.436 63.8962 155.739L63.7711 158.112L70.5985 163.4C74.354 166.307 77.4355 168.68 77.4451 168.672C77.474 168.65 76.2318 159.272 76.1837 159.174C76.1644 159.129 74.1037 157.931 71.6096 156.508L67.074 153.924V152.704V151.484L66.6214 151.363C66.3614 151.303 65.6681 151.107 65.0711 150.941L63.9829 150.633L64.0118 152.004Z" fill="#D1D6D6"/>
<path d="M101.577 151.1L100.2 151.491V152.704V153.924L95.6644 156.508C93.1703 157.931 91.1096 159.129 91.0903 159.174C91.0422 159.272 89.8 168.65 89.8289 168.672C89.8385 168.68 92.92 166.307 96.6755 163.4L103.503 158.112L103.387 155.777C103.33 154.497 103.272 153.209 103.272 152.922C103.272 151.785 103.166 150.7 103.05 150.708C102.993 150.708 102.328 150.889 101.577 151.1Z" fill="#D1D6D6"/>
<path d="M67.6518 152.493C67.6518 152.945 67.6325 153.412 67.6037 153.533C67.5555 153.743 67.7 153.834 72.1296 156.35C76.1451 158.632 76.7037 158.971 76.7037 159.144C76.7037 159.317 76.8963 159.438 78.2444 160.108C79.0918 160.522 79.8044 160.869 79.8333 160.869C79.8622 160.869 79.8814 159.566 79.8814 157.977V155.092L73.8918 153.412C70.5888 152.486 67.8348 151.717 67.777 151.695C67.6807 151.672 67.6518 151.86 67.6518 152.493Z" fill="#F37909"/>
<path d="M93.44 153.389L87.3926 155.092V158.097V161.095L88.9718 160.266C90.4644 159.49 90.5607 159.43 90.5896 159.182C90.6185 158.933 90.8015 158.82 95 156.425C97.4074 155.054 99.4489 153.871 99.5259 153.804C99.6511 153.698 99.6704 153.495 99.6415 152.674C99.6222 152.132 99.5741 151.68 99.5452 151.687C99.5067 151.687 96.7622 152.455 93.44 153.389Z" fill="#F37909"/>
<path d="M65.0518 165.253V168.243L72.6207 177.289C76.7903 182.26 80.2089 186.32 80.2185 186.313C80.2281 186.298 79.7177 183.164 79.0726 179.345L77.8977 172.393L73.0926 168.612C70.454 166.526 67.5652 164.251 66.6696 163.543L65.0518 162.262V165.253Z" fill="#D1D6D6"/>
<path d="M95.7704 167.354L89.3763 172.416L88.2015 179.353C87.5563 183.164 87.0459 186.298 87.0556 186.313C87.0652 186.32 90.4837 182.26 94.6533 177.289L102.222 168.235L102.203 165.268L102.174 162.3L95.7704 167.354Z" fill="#D1D6D6"/>
<path d="M211.737 223.576C209.83 224.224 208.261 224.759 208.241 224.766C208.222 224.774 209.33 226.762 210.707 229.18L213.201 233.571L213.268 240.154C213.307 243.777 213.345 246.745 213.355 246.753C213.364 246.76 213.769 246.745 214.25 246.73L215.127 246.7L215.194 234.573C215.242 227.907 215.252 222.439 215.233 222.431C215.223 222.416 213.644 222.936 211.737 223.576Z" fill="#D1D6D6"/>
<path d="M216.07 234.535C216.109 241.216 216.147 246.685 216.157 246.685C216.157 246.692 216.561 246.715 217.043 246.73L217.919 246.76L217.977 243.145C218.016 241.164 218.044 238.203 218.044 236.569V233.601L220.558 229.195C221.935 226.77 223.052 224.774 223.033 224.766C223.013 224.759 221.424 224.216 219.508 223.568L216.003 222.393L216.07 234.535Z" fill="#D1D6D6"/>
<path d="M206.441 231.402C204.9 233.451 203.61 235.206 203.561 235.304C203.494 235.439 203.629 235.763 204.226 236.878C204.64 237.646 205.006 238.279 205.035 238.279C205.073 238.279 205.574 237.676 206.152 236.946C206.739 236.215 207.259 235.605 207.327 235.59C207.384 235.575 207.481 235.62 207.529 235.695C207.606 235.801 207.394 236.125 206.441 237.315L205.256 238.799L205.796 239.815C206.094 240.373 206.364 240.817 206.393 240.802C206.431 240.787 206.749 240.373 207.115 239.883C207.904 238.814 208.01 238.701 208.193 238.814C208.261 238.859 208.318 238.934 208.318 238.972C208.318 239.009 207.933 239.559 207.471 240.184L206.614 241.337L208.184 244.267C209.05 245.886 209.773 247.227 209.782 247.257C209.801 247.287 210.244 247.227 210.774 247.122C211.304 247.024 211.968 246.918 212.257 246.888L212.777 246.843L212.71 240.26L212.642 233.669L210.947 230.686C210.023 229.044 209.253 227.689 209.243 227.681C209.233 227.673 207.972 229.346 206.441 231.402Z" fill="#F37909"/>
<path d="M220.336 230.671L218.632 233.677L218.564 240.26L218.497 246.843L219.017 246.888C219.306 246.918 219.97 247.024 220.5 247.122C221.03 247.227 221.473 247.287 221.492 247.257C221.501 247.227 222.224 245.886 223.09 244.267L224.66 241.337L223.803 240.184C223.341 239.559 222.956 239.009 222.956 238.972C222.956 238.934 223.013 238.859 223.081 238.814C223.264 238.701 223.37 238.814 224.159 239.883C224.525 240.373 224.843 240.787 224.881 240.802C224.91 240.817 225.18 240.373 225.478 239.815L226.018 238.799L224.833 237.315C223.88 236.125 223.668 235.801 223.745 235.695C223.793 235.62 223.89 235.575 223.947 235.59C224.015 235.605 224.535 236.215 225.122 236.946C225.7 237.676 226.201 238.279 226.239 238.279C226.307 238.279 227.77 235.567 227.77 235.432C227.77 235.364 222.185 227.794 222.05 227.681C222.041 227.673 221.27 229.022 220.336 230.671Z" fill="#F37909"/>
<path d="M213.528 247.174C209.878 247.446 205.959 248.741 202.781 250.707C199.305 252.876 196.744 255.927 196.05 258.744C195.906 259.339 195.656 261.237 195.723 261.29C195.742 261.305 198.4 260.265 201.626 258.985C212.238 254.767 212.844 254.533 213.095 254.578C213.307 254.624 213.326 254.661 213.326 255.136C213.326 255.415 213.297 256.123 213.258 256.718L213.201 257.795L210.639 258.925C209.233 259.55 207.914 260.145 207.721 260.243C207.038 260.582 206.99 260.544 206.951 259.535C206.932 259.053 206.951 258.593 206.99 258.525C207.067 258.405 210.745 256.883 210.967 256.883C211.034 256.883 211.14 256.929 211.198 256.989C211.352 257.132 211.333 257.139 209.262 257.976L207.452 258.706L207.461 259.053C207.471 259.248 207.5 259.497 207.538 259.61L207.596 259.813L210.042 258.729C211.39 258.134 212.556 257.599 212.623 257.539C212.719 257.463 212.748 257.17 212.729 256.236L212.7 255.038L203.648 258.631L194.596 262.224V263.414V264.596L198.641 265.628C200.865 266.201 202.762 266.698 202.849 266.743C203.022 266.826 203.099 267.127 202.955 267.127C202.907 267.127 201.019 266.653 198.737 266.08C196.464 265.5 194.596 265.033 194.587 265.041C194.577 265.048 194.538 265.417 194.51 265.854L194.442 266.66L194.712 266.735C197.668 267.549 212.074 271.609 212.199 271.654C212.353 271.722 212.363 271.993 212.363 275.699V279.668L213.788 281.107L215.204 282.553L215.261 282.124C215.358 281.468 215.348 271.112 215.252 264.001C215.204 260.476 215.156 255.234 215.156 252.341V247.092L214.741 247.099C214.52 247.107 213.971 247.137 213.528 247.174Z" fill="#D1D6D6"/>
<path d="M216.119 252.334C216.119 255.234 216.07 260.476 216.022 264.001C215.926 271.112 215.916 281.468 216.013 282.124L216.07 282.553L217.486 281.107L218.911 279.668V275.699C218.911 271.993 218.921 271.722 219.084 271.654C219.2 271.609 233.606 267.549 236.562 266.735L236.832 266.66L236.764 265.854C236.736 265.417 236.697 265.048 236.687 265.041C236.678 265.033 234.81 265.5 232.537 266.08C230.255 266.653 228.367 267.127 228.329 267.127C228.175 267.127 228.252 266.826 228.425 266.743C228.512 266.698 230.409 266.201 232.633 265.628L236.678 264.596V263.414V262.224L227.626 258.631L218.574 255.038L218.545 256.236C218.526 257.17 218.555 257.463 218.651 257.539C218.719 257.599 219.884 258.134 221.232 258.729L223.678 259.813L223.736 259.61C223.774 259.497 223.803 259.248 223.813 259.053L223.822 258.706L222.021 257.976C219.941 257.139 219.922 257.132 220.076 256.989C220.134 256.929 220.24 256.883 220.307 256.883C220.529 256.883 224.207 258.405 224.284 258.525C224.323 258.593 224.342 259.053 224.323 259.535C224.284 260.544 224.236 260.582 223.553 260.243C223.36 260.145 222.041 259.55 220.635 258.925L218.073 257.795L218.016 256.718C217.977 256.123 217.948 255.415 217.948 255.136C217.948 254.661 217.967 254.624 218.179 254.578C218.449 254.526 217.775 254.27 228.358 258.473C232.21 260.002 235.387 261.252 235.426 261.252C235.551 261.252 235.397 259.294 235.233 258.699C234.087 254.676 229.976 250.85 224.554 248.756C222.031 247.784 219.691 247.28 217.014 247.129L216.119 247.076V252.334Z" fill="#D1D6D6"/>
<path d="M196.012 268.882C196.021 269.635 195.973 271.315 195.896 272.618L195.771 274.991L202.598 280.278C206.354 283.186 209.436 285.558 209.445 285.551C209.474 285.528 208.232 276.151 208.184 276.053C208.164 276.008 206.104 274.81 203.61 273.386L199.074 270.803V269.583V268.362L198.621 268.242C198.361 268.182 197.668 267.986 197.071 267.82L195.983 267.511L196.012 268.882Z" fill="#D1D6D6"/>
<path d="M233.577 267.978L232.2 268.37V269.583V270.803L227.664 273.386C225.17 274.81 223.11 276.008 223.09 276.053C223.042 276.151 221.8 285.528 221.829 285.551C221.838 285.558 224.92 283.186 228.676 280.278L235.503 274.991L235.387 272.656C235.33 271.375 235.272 270.087 235.272 269.801C235.272 268.664 235.166 267.579 235.05 267.587C234.993 267.587 234.328 267.767 233.577 267.978Z" fill="#D1D6D6"/>
<path d="M199.652 269.372C199.652 269.824 199.633 270.291 199.604 270.411C199.556 270.622 199.7 270.713 204.13 273.228C208.145 275.511 208.704 275.849 208.704 276.023C208.704 276.196 208.896 276.316 210.244 276.987C211.092 277.401 211.804 277.748 211.833 277.748C211.862 277.748 211.881 276.444 211.881 274.855V271.97L205.892 270.291C202.589 269.364 199.835 268.596 199.777 268.573C199.681 268.551 199.652 268.739 199.652 269.372Z" fill="#F37909"/>
<path d="M225.44 270.268L219.393 271.97V274.976V277.973L220.972 277.145C222.464 276.369 222.561 276.309 222.59 276.06C222.619 275.812 222.801 275.699 227 273.303C229.407 271.933 231.449 270.75 231.526 270.682C231.651 270.577 231.67 270.373 231.641 269.552C231.622 269.01 231.574 268.558 231.545 268.566C231.507 268.566 228.762 269.334 225.44 270.268Z" fill="#F37909"/>
<path d="M197.052 282.131V285.121L204.621 294.168C208.79 299.139 212.209 303.199 212.218 303.191C212.228 303.176 211.718 300.043 211.073 296.224L209.898 289.272L205.093 285.491C202.454 283.404 199.565 281.129 198.67 280.421L197.052 279.141V282.131Z" fill="#2965F1"/>
<path d="M227.77 284.233L221.376 289.294L220.201 296.231C219.556 300.043 219.046 303.176 219.056 303.191C219.065 303.199 222.484 299.139 226.653 294.168L234.222 285.114L234.203 282.146L234.174 279.179L227.77 284.233Z" fill="#2965F1"/>
</g>
<defs>
<filter id="filter0_d_20_198" x="0" y="0" width="1370" height="339" filterUnits="userSpaceOnUse" color-interpolation-filters="sRGB">
<feFlood flood-opacity="0" result="BackgroundImageFix"/>
<feColorMatrix in="SourceAlpha" type="matrix" values="0 0 0 0 0 0 0 0 0 0 0 0 0 0 0 0 0 0 127 0" result="hardAlpha"/>
<feOffset dy="4"/>
<feGaussianBlur stdDeviation="2"/>
<feComposite in2="hardAlpha" operator="out"/>
<feColorMatrix type="matrix" values="0 0 0 0 0 0 0 0 0 0 0 0 0 0 0 0 0 0 0.25 0"/>
<feBlend mode="normal" in2="BackgroundImageFix" result="effect1_dropShadow_20_198"/>
<feBlend mode="normal" in="SourceGraphic" in2="effect1_dropShadow_20_198" result="shape"/>
</filter>
</defs>
</svg>
