<svg width="253" height="303" viewBox="0 0 253 303" fill="none" xmlns="http://www.w3.org/2000/svg">
<path d="M122.83 102.936C119.738 104.142 117.192 105.138 117.161 105.152C117.13 105.166 118.926 108.87 121.159 113.373L125.204 121.551L125.313 133.811C125.376 140.558 125.438 146.085 125.454 146.099C125.469 146.113 126.125 146.085 126.906 146.057L128.327 146.001L128.437 123.416C128.515 111.002 128.53 100.818 128.499 100.804C128.483 100.776 125.922 101.743 122.83 102.936Z" fill="#23BAC2"/>
<path d="M129.858 123.346C129.92 135.789 129.983 145.973 129.998 145.973C129.998 145.987 130.654 146.029 131.435 146.057L132.856 146.113L132.95 139.38C133.012 135.691 133.059 130.178 133.059 127.134V121.607L137.135 113.401C139.369 108.884 141.18 105.166 141.149 105.152C141.118 105.138 138.541 104.128 135.433 102.922L129.748 100.733L129.858 123.346Z" fill="#23BAC2"/>
<path d="M114.24 117.511C111.742 121.326 109.649 124.595 109.571 124.777C109.462 125.03 109.68 125.633 110.648 127.709C111.32 129.14 111.913 130.318 111.96 130.318C112.023 130.318 112.835 129.196 113.772 127.835C114.725 126.474 115.568 125.338 115.677 125.31C115.771 125.282 115.927 125.366 116.005 125.507C116.13 125.703 115.787 126.306 114.24 128.523L112.319 131.286L113.194 133.18C113.678 134.218 114.115 135.045 114.162 135.017C114.225 134.989 114.74 134.218 115.334 133.306C116.614 131.314 116.786 131.104 117.083 131.314C117.192 131.398 117.286 131.538 117.286 131.609C117.286 131.679 116.661 132.703 115.911 133.867L114.522 136.013L117.067 141.47C118.473 144.486 119.644 146.983 119.66 147.039C119.691 147.095 120.409 146.983 121.268 146.787C122.127 146.604 123.205 146.408 123.673 146.352L124.517 146.268L124.407 134.007L124.298 121.733L121.549 116.178C120.05 113.12 118.801 110.595 118.785 110.581C118.769 110.567 116.724 113.681 114.24 117.511Z" fill="#23BAC2"/>
<path d="M136.776 116.15L134.012 121.747L133.903 134.007L133.793 146.268L134.637 146.352C135.105 146.408 136.183 146.604 137.042 146.787C137.901 146.983 138.619 147.095 138.65 147.039C138.666 146.983 139.837 144.486 141.243 141.47L143.788 136.013L142.398 133.867C141.649 132.703 141.024 131.679 141.024 131.609C141.024 131.538 141.118 131.398 141.227 131.314C141.524 131.104 141.696 131.314 142.976 133.306C143.57 134.218 144.085 134.989 144.148 135.017C144.194 135.045 144.632 134.218 145.116 133.18L145.99 131.286L144.069 128.523C142.523 126.306 142.18 125.703 142.305 125.507C142.383 125.366 142.539 125.282 142.633 125.31C142.742 125.338 143.585 126.474 144.538 127.835C145.475 129.196 146.287 130.318 146.35 130.318C146.459 130.318 148.833 125.268 148.833 125.016C148.833 124.889 139.775 110.791 139.556 110.581C139.54 110.567 138.291 113.078 136.776 116.15Z" fill="#23BAC2"/>
<path d="M125.735 146.885C119.816 147.39 113.46 149.803 108.306 153.464C102.668 157.504 98.5138 163.185 97.3894 168.432C97.1551 169.54 96.7491 173.075 96.8584 173.173C96.8896 173.201 101.2 171.265 106.432 168.88C123.642 161.025 124.626 160.59 125.032 160.674C125.376 160.758 125.407 160.828 125.407 161.712C125.407 162.231 125.36 163.55 125.297 164.658L125.204 166.664L121.05 168.768C118.769 169.933 116.63 171.041 116.318 171.223C115.209 171.854 115.131 171.784 115.068 169.904C115.037 169.007 115.068 168.151 115.131 168.025C115.256 167.8 121.221 164.967 121.581 164.967C121.69 164.967 121.862 165.051 121.955 165.163C122.205 165.43 122.174 165.444 118.816 167.001L115.88 168.361L115.896 169.007C115.911 169.371 115.958 169.834 116.021 170.045L116.115 170.423L120.081 168.403C122.268 167.295 124.157 166.299 124.267 166.187C124.423 166.047 124.47 165.5 124.439 163.76L124.392 161.53L109.711 168.221L95.0312 174.912V177.129V179.331L101.59 181.253C105.198 182.319 108.275 183.245 108.415 183.329C108.696 183.483 108.821 184.044 108.587 184.044C108.509 184.044 105.448 183.161 101.747 182.095C98.0609 181.014 95.0312 180.145 95.0156 180.159C94.9999 180.173 94.9375 180.86 94.8906 181.674L94.7813 183.175L95.2186 183.315C100.013 184.83 123.377 192.391 123.58 192.475C123.829 192.601 123.845 193.106 123.845 200.008V207.401L126.156 210.08L128.452 212.773L128.546 211.974C128.702 210.753 128.686 191.465 128.53 178.223C128.452 171.658 128.374 161.895 128.374 156.508V146.731L127.703 146.745C127.343 146.759 126.453 146.815 125.735 146.885Z" fill="#23BAC2"/>
<path d="M129.936 156.494C129.936 161.895 129.858 171.658 129.78 178.223C129.623 191.465 129.608 210.753 129.764 211.974L129.858 212.773L132.153 210.08L134.465 207.401V200.008C134.465 193.106 134.48 192.601 134.746 192.475C134.933 192.391 158.297 184.83 163.091 183.315L163.529 183.175L163.419 181.674C163.372 180.86 163.31 180.173 163.294 180.159C163.279 180.145 160.249 181.014 156.563 182.095C152.862 183.161 149.801 184.044 149.739 184.044C149.489 184.044 149.614 183.483 149.895 183.329C150.035 183.245 153.112 182.319 156.719 181.253L163.279 179.331V177.129V174.912L148.598 168.221L133.918 161.53L133.871 163.76C133.84 165.5 133.887 166.047 134.043 166.187C134.152 166.299 136.042 167.295 138.229 168.403L142.195 170.423L142.289 170.045C142.352 169.834 142.398 169.371 142.414 169.007L142.43 168.361L139.509 167.001C136.136 165.444 136.105 165.43 136.355 165.163C136.448 165.051 136.62 164.967 136.729 164.967C137.089 164.967 143.054 167.8 143.179 168.025C143.242 168.151 143.273 169.007 143.242 169.904C143.179 171.784 143.101 171.854 141.992 171.223C141.68 171.041 139.54 169.933 137.26 168.768L133.106 166.664L133.012 164.658C132.95 163.55 132.903 162.231 132.903 161.712C132.903 160.828 132.934 160.758 133.278 160.674C133.715 160.576 132.622 160.099 149.785 167.927C156.032 170.774 161.186 173.103 161.248 173.103C161.451 173.103 161.202 169.456 160.936 168.347C159.078 160.857 152.409 153.73 143.617 149.831C139.525 148.021 135.73 147.081 131.388 146.801L129.936 146.703V156.494Z" fill="#23BAC2"/>
<path d="M97.3269 187.313C97.3425 188.716 97.2644 191.844 97.1395 194.271L96.9365 198.689L108.009 208.537C114.1 213.952 119.097 218.37 119.113 218.356C119.16 218.314 117.145 200.85 117.067 200.667C117.036 200.583 113.694 198.353 109.649 195.702L102.293 190.89V188.618V186.345L101.559 186.121C101.138 186.008 100.013 185.644 99.0448 185.335L97.2801 184.76L97.3269 187.313Z" fill="#23BAC2"/>
<path d="M158.25 185.63L156.017 186.359V188.618V190.89L148.661 195.702C144.616 198.353 141.274 200.583 141.243 200.667C141.165 200.85 139.15 218.314 139.197 218.356C139.212 218.37 144.21 213.952 150.301 208.537L161.373 198.689L161.186 194.341C161.092 191.956 160.999 189.557 160.999 189.024C160.999 186.906 160.827 184.886 160.639 184.9C160.546 184.9 159.468 185.237 158.25 185.63Z" fill="#23BAC2"/>
<path d="M103.23 188.225C103.23 189.066 103.199 189.936 103.152 190.161C103.074 190.553 103.308 190.722 110.492 195.407C117.005 199.657 117.91 200.289 117.91 200.611C117.91 200.934 118.223 201.158 120.409 202.407C121.784 203.178 122.939 203.824 122.986 203.824C123.033 203.824 123.064 201.397 123.064 198.437V193.064L113.35 189.936C107.994 188.211 103.527 186.78 103.433 186.738C103.277 186.696 103.23 187.046 103.23 188.225Z" fill="#23BAC2"/>
<path d="M145.053 189.894L135.246 193.064V198.661V204.244L137.807 202.701C140.228 201.257 140.384 201.144 140.431 200.681C140.477 200.218 140.774 200.008 147.583 195.547C151.488 192.994 154.799 190.792 154.923 190.666C155.126 190.469 155.158 190.09 155.111 188.561C155.08 187.551 155.002 186.71 154.955 186.724C154.892 186.724 150.441 188.155 145.053 189.894Z" fill="#23BAC2"/>
<path d="M99.0136 211.988V217.557L111.289 234.404C118.051 243.663 123.595 251.223 123.611 251.209C123.626 251.181 122.799 245.346 121.752 238.234L119.847 225.286L112.054 218.244C107.775 214.358 103.09 210.122 101.637 208.803L99.0136 206.419V211.988Z" fill="#23BAC2"/>
<path d="M148.833 215.902L138.463 225.328L136.558 238.248C135.511 245.346 134.683 251.181 134.699 251.209C134.715 251.223 140.259 243.663 147.021 234.404L159.296 217.543L159.265 212.016L159.218 206.489L148.833 215.902Z" fill="#23BAC2"/>
</svg>
